STARTFONT 2.1
FONT -Monotype-Arial Narrow-Bold-R-Normal--12-120-75-75-P-53-iso8859-4
SIZE 12 75 75
FONTBOUNDINGBOX 13 16 -2 -4

STARTPROPERTIES 24
FOUNDRY "Monotype"
FAMILY_NAME "Arial Narrow"
WEIGHT_NAME "Bold"
SLANT "R"
SETWIDTH_NAME "Normal"
ADD_STYLE_NAME ""
PIXEL_SIZE 12
POINT_SIZE 120
RESOLUTION_X 75
RESOLUTION_Y 75
SPACING "P"
AVERAGE_WIDTH 53
CHARSET_REGISTRY "iso8859"
CHARSET_ENCODING "4"
FACE_NAME "Arial Narrow Bold ISO Latin4"
_DEC_DEVICE_FONTNAMES "PS=arialnarrow-b-lat4"
COPYRIGHT "Copyright (c) 1994 Monotype Typography Ltd."
CAP_HEIGHT 11
X_HEIGHT 8
WEIGHT 10
QUAD_WIDTH 7
DEFAULT_CHAR 160
FONT_DESCENT 4
FONT_ASCENT 12
ENDPROPERTIES

CHARS 191

STARTCHAR space
ENCODING 32
SWIDTH 228 0
DWIDTH 3 0
BBX 0 0 0 0
BITMAP
ENDCHAR

STARTCHAR exclam
ENCODING 33
SWIDTH 273 0
DWIDTH 4 0
BBX 2 9 1 0
BITMAP
C0
C0
C0
C0
C0
C0
00
C0
C0
ENDCHAR

STARTCHAR quotedbl
ENCODING 34
SWIDTH 389 0
DWIDTH 5 0
BBX 5 4 0 5
BITMAP
D8
D8
D8
D8
ENDCHAR

STARTCHAR numbersign
ENCODING 35
SWIDTH 456 0
DWIDTH 6 0
BBX 6 9 0 0
BITMAP
2C
28
FC
68
58
F8
50
50
D0
ENDCHAR

STARTCHAR dollar
ENCODING 36
SWIDTH 456 0
DWIDTH 6 0
BBX 5 12 1 -2
BITMAP
20
70
F8
A0
E0
70
38
A8
F8
70
20
20
ENDCHAR

STARTCHAR percent
ENCODING 37
SWIDTH 729 0
DWIDTH 9 0
BBX 8 10 1 -1
BITMAP
46
E6
A6
EC
4C
1A
1F
35
37
32
ENDCHAR

STARTCHAR ampersand
ENCODING 38
SWIDTH 592 0
DWIDTH 8 0
BBX 7 9 1 0
BITMAP
30
68
58
30
74
DC
D8
FE
7E
ENDCHAR

STARTCHAR quoteright
ENCODING 39
SWIDTH 228 0
DWIDTH 3 0
BBX 2 4 1 5
BITMAP
C0
C0
40
80
ENDCHAR

STARTCHAR parenleft
ENCODING 40
SWIDTH 273 0
DWIDTH 4 0
BBX 3 13 1 -4
BITMAP
20
60
C0
C0
C0
C0
C0
C0
C0
C0
C0
60
20
ENDCHAR

STARTCHAR parenright
ENCODING 41
SWIDTH 273 0
DWIDTH 4 0
BBX 3 13 1 -4
BITMAP
80
C0
60
60
60
60
60
60
60
60
60
C0
80
ENDCHAR

STARTCHAR asterisk
ENCODING 42
SWIDTH 319 0
DWIDTH 4 0
BBX 4 5 0 4
BITMAP
A0
F0
60
F0
B0
ENDCHAR

STARTCHAR plus
ENCODING 43
SWIDTH 479 0
DWIDTH 6 0
BBX 5 6 1 2
BITMAP
20
20
F8
F8
20
20
ENDCHAR

STARTCHAR comma
ENCODING 44
SWIDTH 228 0
DWIDTH 3 0
BBX 2 4 1 -2
BITMAP
C0
C0
40
80
ENDCHAR

STARTCHAR minus
ENCODING 45
SWIDTH 479 0
DWIDTH 6 0
BBX 6 2 0 4
BITMAP
FC
FC
ENDCHAR

STARTCHAR period
ENCODING 46
SWIDTH 228 0
DWIDTH 3 0
BBX 2 2 1 0
BITMAP
C0
C0
ENDCHAR

STARTCHAR slash
ENCODING 47
SWIDTH 228 0
DWIDTH 3 0
BBX 4 10 0 -1
BITMAP
30
30
30
60
60
60
60
C0
C0
C0
ENDCHAR

STARTCHAR zero
ENCODING 48
SWIDTH 456 0
DWIDTH 6 0
BBX 5 9 1 0
BITMAP
70
D8
D8
D8
D8
D8
D8
D8
70
ENDCHAR

STARTCHAR one
ENCODING 49
SWIDTH 456 0
DWIDTH 6 0
BBX 4 9 1 0
BITMAP
10
30
F0
30
30
30
30
30
30
ENDCHAR

STARTCHAR two
ENCODING 50
SWIDTH 456 0
DWIDTH 6 0
BBX 5 9 1 0
BITMAP
70
D8
D8
18
30
60
C0
C0
F8
ENDCHAR

STARTCHAR three
ENCODING 51
SWIDTH 456 0
DWIDTH 6 0
BBX 5 9 1 0
BITMAP
70
D8
D8
18
30
18
D8
D8
70
ENDCHAR

STARTCHAR four
ENCODING 52
SWIDTH 456 0
DWIDTH 6 0
BBX 6 9 0 0
BITMAP
18
38
38
78
D8
D8
FC
18
18
ENDCHAR

STARTCHAR five
ENCODING 53
SWIDTH 456 0
DWIDTH 6 0
BBX 5 9 1 0
BITMAP
F8
C0
C0
F0
D8
18
D8
D8
70
ENDCHAR

STARTCHAR six
ENCODING 54
SWIDTH 456 0
DWIDTH 6 0
BBX 5 9 1 0
BITMAP
38
60
C0
F0
D8
D8
D8
D8
70
ENDCHAR

STARTCHAR seven
ENCODING 55
SWIDTH 456 0
DWIDTH 6 0
BBX 5 9 1 0
BITMAP
F8
18
30
30
30
60
60
60
60
ENDCHAR

STARTCHAR eight
ENCODING 56
SWIDTH 456 0
DWIDTH 6 0
BBX 5 9 1 0
BITMAP
70
D8
D8
D8
70
D8
D8
D8
70
ENDCHAR

STARTCHAR nine
ENCODING 57
SWIDTH 456 0
DWIDTH 6 0
BBX 5 9 1 0
BITMAP
70
D8
D8
D8
D8
78
18
30
E0
ENDCHAR

STARTCHAR colon
ENCODING 58
SWIDTH 273 0
DWIDTH 4 0
BBX 2 7 1 0
BITMAP
C0
C0
00
00
00
C0
C0
ENDCHAR

STARTCHAR semicolon
ENCODING 59
SWIDTH 273 0
DWIDTH 4 0
BBX 2 9 1 -2
BITMAP
C0
C0
00
00
00
C0
C0
40
80
ENDCHAR

STARTCHAR less
ENCODING 60
SWIDTH 479 0
DWIDTH 6 0
BBX 5 7 1 1
BITMAP
08
38
70
C0
70
38
08
ENDCHAR

STARTCHAR equal
ENCODING 61
SWIDTH 479 0
DWIDTH 6 0
BBX 6 5 0 3
BITMAP
FC
FC
00
FC
FC
ENDCHAR

STARTCHAR greater
ENCODING 62
SWIDTH 479 0
DWIDTH 6 0
BBX 5 7 1 1
BITMAP
80
E0
70
18
70
E0
80
ENDCHAR

STARTCHAR question
ENCODING 63
SWIDTH 501 0
DWIDTH 7 0
BBX 5 9 1 0
BITMAP
70
D8
98
18
30
60
00
60
60
ENDCHAR

STARTCHAR at
ENCODING 64
SWIDTH 800 0
DWIDTH 10 0
BBX 10 12 0 -3
BITMAP
1F00
60C0
5F40
9340
B240
A240
A2C0
B680
9B00
4040
60C0
1F00
ENDCHAR

STARTCHAR A
ENCODING 65
SWIDTH 592 0
DWIDTH 8 0
BBX 7 9 1 0
BITMAP
10
38
28
6C
6C
7C
C6
C6
C6
ENDCHAR

STARTCHAR B
ENCODING 66
SWIDTH 592 0
DWIDTH 8 0
BBX 6 9 1 0
BITMAP
F8
CC
CC
CC
F8
CC
CC
CC
F8
ENDCHAR

STARTCHAR C
ENCODING 67
SWIDTH 592 0
DWIDTH 8 0
BBX 7 9 1 0
BITMAP
3C
66
C6
C0
C0
C0
C6
66
3C
ENDCHAR

STARTCHAR D
ENCODING 68
SWIDTH 592 0
DWIDTH 8 0
BBX 7 9 1 0
BITMAP
F8
CC
C6
C6
C6
C6
C6
CC
F8
ENDCHAR

STARTCHAR E
ENCODING 69
SWIDTH 547 0
DWIDTH 6 0
BBX 5 9 1 0
BITMAP
F8
C0
C0
C0
F8
C0
C0
C0
F8
ENDCHAR

STARTCHAR F
ENCODING 70
SWIDTH 501 0
DWIDTH 6 0
BBX 5 9 1 0
BITMAP
F8
C0
C0
C0
F8
C0
C0
C0
C0
ENDCHAR

STARTCHAR G
ENCODING 71
SWIDTH 638 0
DWIDTH 8 0
BBX 7 9 1 0
BITMAP
3C
66
C6
C0
C0
CE
C6
66
3C
ENDCHAR

STARTCHAR H
ENCODING 72
SWIDTH 592 0
DWIDTH 8 0
BBX 7 9 1 0
BITMAP
C6
C6
C6
C6
FE
C6
C6
C6
C6
ENDCHAR

STARTCHAR I
ENCODING 73
SWIDTH 228 0
DWIDTH 3 0
BBX 2 9 1 0
BITMAP
C0
C0
C0
C0
C0
C0
C0
C0
C0
ENDCHAR

STARTCHAR J
ENCODING 74
SWIDTH 456 0
DWIDTH 6 0
BBX 5 9 1 0
BITMAP
18
18
18
18
18
18
D8
D8
70
ENDCHAR

STARTCHAR K
ENCODING 75
SWIDTH 592 0
DWIDTH 8 0
BBX 7 9 1 0
BITMAP
C6
CC
D8
F0
F8
D8
CC
C6
C6
ENDCHAR

STARTCHAR L
ENCODING 76
SWIDTH 501 0
DWIDTH 7 0
BBX 6 9 1 0
BITMAP
C0
C0
C0
C0
C0
C0
C0
C0
FC
ENDCHAR

STARTCHAR M
ENCODING 77
SWIDTH 683 0
DWIDTH 9 0
BBX 8 9 1 0
BITMAP
C3
C3
E7
E7
E7
DB
DB
DB
DB
ENDCHAR

STARTCHAR N
ENCODING 78
SWIDTH 592 0
DWIDTH 8 0
BBX 7 9 1 0
BITMAP
C6
C6
E6
E6
F6
D6
DE
CE
C6
ENDCHAR

STARTCHAR O
ENCODING 79
SWIDTH 638 0
DWIDTH 8 0
BBX 7 9 1 0
BITMAP
38
6C
C6
C6
C6
C6
C6
6C
38
ENDCHAR

STARTCHAR P
ENCODING 80
SWIDTH 547 0
DWIDTH 7 0
BBX 6 9 1 0
BITMAP
F8
CC
CC
CC
CC
F8
C0
C0
C0
ENDCHAR

STARTCHAR Q
ENCODING 81
SWIDTH 638 0
DWIDTH 8 0
BBX 7 10 1 -1
BITMAP
38
6C
C6
C6
C6
D6
DE
7C
3C
06
ENDCHAR

STARTCHAR R
ENCODING 82
SWIDTH 592 0
DWIDTH 8 0
BBX 7 9 1 0
BITMAP
FC
C6
C6
C6
FC
D8
CC
CC
C6
ENDCHAR

STARTCHAR S
ENCODING 83
SWIDTH 547 0
DWIDTH 7 0
BBX 6 9 1 0
BITMAP
78
CC
CC
E0
78
1C
CC
CC
78
ENDCHAR

STARTCHAR T
ENCODING 84
SWIDTH 501 0
DWIDTH 7 0
BBX 6 9 1 0
BITMAP
FC
30
30
30
30
30
30
30
30
ENDCHAR

STARTCHAR U
ENCODING 85
SWIDTH 592 0
DWIDTH 8 0
BBX 7 9 1 0
BITMAP
C6
C6
C6
C6
C6
C6
C6
6C
38
ENDCHAR

STARTCHAR V
ENCODING 86
SWIDTH 547 0
DWIDTH 7 0
BBX 7 9 0 0
BITMAP
C6
C6
C6
6C
6C
6C
38
38
10
ENDCHAR

STARTCHAR W
ENCODING 87
SWIDTH 774 0
DWIDTH 10 0
BBX 9 9 1 0
BITMAP
C980
C980
DD80
DD80
7700
7700
6300
6300
6300
ENDCHAR

STARTCHAR X
ENCODING 88
SWIDTH 547 0
DWIDTH 7 0
BBX 7 9 0 0
BITMAP
C6
6C
6C
38
38
38
6C
6C
C6
ENDCHAR

STARTCHAR Y
ENCODING 89
SWIDTH 547 0
DWIDTH 7 0
BBX 8 9 0 0
BITMAP
C3
66
66
3C
18
18
18
18
18
ENDCHAR

STARTCHAR Z
ENCODING 90
SWIDTH 501 0
DWIDTH 7 0
BBX 6 9 1 0
BITMAP
FC
0C
0C
18
30
30
60
C0
FC
ENDCHAR

STARTCHAR bracketleft
ENCODING 91
SWIDTH 273 0
DWIDTH 4 0
BBX 3 12 1 -3
BITMAP
E0
C0
C0
C0
C0
C0
C0
C0
C0
C0
C0
E0
ENDCHAR

STARTCHAR backslash
ENCODING 92
SWIDTH 228 0
DWIDTH 3 0
BBX 4 10 0 -1
BITMAP
C0
C0
C0
60
60
60
60
30
30
30
ENDCHAR

STARTCHAR bracketright
ENCODING 93
SWIDTH 273 0
DWIDTH 4 0
BBX 3 12 1 -3
BITMAP
E0
60
60
60
60
60
60
60
60
60
60
E0
ENDCHAR

STARTCHAR asciicircum
ENCODING 94
SWIDTH 479 0
DWIDTH 6 0
BBX 5 5 1 4
BITMAP
20
70
50
D8
88
ENDCHAR

STARTCHAR underscore
ENCODING 95
SWIDTH 456 0
DWIDTH 6 0
BBX 6 2 0 -3
BITMAP
FC
FC
ENDCHAR

STARTCHAR quoteleft
ENCODING 96
SWIDTH 228 0
DWIDTH 3 0
BBX 2 4 1 5
BITMAP
40
80
C0
C0
ENDCHAR

STARTCHAR a
ENCODING 97
SWIDTH 456 0
DWIDTH 5 0
BBX 5 7 0 0
BITMAP
70
18
18
78
D8
D8
68
ENDCHAR

STARTCHAR b
ENCODING 98
SWIDTH 501 0
DWIDTH 7 0
BBX 6 9 1 0
BITMAP
C0
C0
D8
EC
CC
CC
CC
EC
D8
ENDCHAR

STARTCHAR c
ENCODING 99
SWIDTH 456 0
DWIDTH 6 0
BBX 5 7 1 0
BITMAP
70
D8
C0
C0
C0
D8
70
ENDCHAR

STARTCHAR d
ENCODING 100
SWIDTH 501 0
DWIDTH 7 0
BBX 6 9 1 0
BITMAP
0C
0C
6C
DC
CC
CC
CC
DC
6C
ENDCHAR

STARTCHAR e
ENCODING 101
SWIDTH 456 0
DWIDTH 6 0
BBX 5 7 1 0
BITMAP
70
D8
D8
F8
C0
D8
70
ENDCHAR

STARTCHAR f
ENCODING 102
SWIDTH 273 0
DWIDTH 3 0
BBX 4 9 0 0
BITMAP
30
60
F0
60
60
60
60
60
60
ENDCHAR

STARTCHAR g
ENCODING 103
SWIDTH 501 0
DWIDTH 7 0
BBX 6 9 1 -2
BITMAP
6C
DC
CC
CC
CC
DC
6C
8C
78
ENDCHAR

STARTCHAR h
ENCODING 104
SWIDTH 501 0
DWIDTH 7 0
BBX 6 9 1 0
BITMAP
C0
C0
D8
EC
CC
CC
CC
CC
CC
ENDCHAR

STARTCHAR i
ENCODING 105
SWIDTH 228 0
DWIDTH 3 0
BBX 2 9 1 0
BITMAP
C0
00
C0
C0
C0
C0
C0
C0
C0
ENDCHAR

STARTCHAR j
ENCODING 106
SWIDTH 228 0
DWIDTH 3 0
BBX 3 12 0 -3
BITMAP
60
00
60
60
60
60
60
60
60
60
60
C0
ENDCHAR

STARTCHAR k
ENCODING 107
SWIDTH 456 0
DWIDTH 6 0
BBX 5 9 1 0
BITMAP
C0
C0
D8
D8
F0
E0
F0
D8
D8
ENDCHAR

STARTCHAR l
ENCODING 108
SWIDTH 228 0
DWIDTH 3 0
BBX 2 9 1 0
BITMAP
C0
C0
C0
C0
C0
C0
C0
C0
C0
ENDCHAR

STARTCHAR m
ENCODING 109
SWIDTH 729 0
DWIDTH 8 0
BBX 7 7 1 0
BITMAP
B4
FE
D6
D6
D6
D6
D6
ENDCHAR

STARTCHAR n
ENCODING 110
SWIDTH 501 0
DWIDTH 7 0
BBX 6 7 1 0
BITMAP
D8
EC
CC
CC
CC
CC
CC
ENDCHAR

STARTCHAR o
ENCODING 111
SWIDTH 501 0
DWIDTH 7 0
BBX 6 7 1 0
BITMAP
78
CC
CC
CC
CC
CC
78
ENDCHAR

STARTCHAR p
ENCODING 112
SWIDTH 501 0
DWIDTH 7 0
BBX 6 9 1 -2
BITMAP
D8
EC
CC
CC
CC
EC
D8
C0
C0
ENDCHAR

STARTCHAR q
ENCODING 113
SWIDTH 501 0
DWIDTH 7 0
BBX 6 9 1 -2
BITMAP
6C
DC
CC
CC
CC
DC
6C
0C
0C
ENDCHAR

STARTCHAR r
ENCODING 114
SWIDTH 319 0
DWIDTH 4 0
BBX 4 7 1 0
BITMAP
D0
F0
E0
C0
C0
C0
C0
ENDCHAR

STARTCHAR s
ENCODING 115
SWIDTH 456 0
DWIDTH 6 0
BBX 5 7 1 0
BITMAP
70
D8
E0
70
38
D8
70
ENDCHAR

STARTCHAR t
ENCODING 116
SWIDTH 273 0
DWIDTH 3 0
BBX 4 9 0 0
BITMAP
60
60
F0
60
60
60
60
60
30
ENDCHAR

STARTCHAR u
ENCODING 117
SWIDTH 501 0
DWIDTH 7 0
BBX 6 7 1 0
BITMAP
CC
CC
CC
CC
CC
DC
6C
ENDCHAR

STARTCHAR v
ENCODING 118
SWIDTH 456 0
DWIDTH 6 0
BBX 6 7 0 0
BITMAP
CC
CC
CC
48
78
30
30
ENDCHAR

STARTCHAR w
ENCODING 119
SWIDTH 638 0
DWIDTH 8 0
BBX 8 7 0 0
BITMAP
DB
DB
DB
5A
66
66
66
ENDCHAR

STARTCHAR x
ENCODING 120
SWIDTH 456 0
DWIDTH 6 0
BBX 5 7 1 0
BITMAP
D8
D0
70
20
70
58
D8
ENDCHAR

STARTCHAR y
ENCODING 121
SWIDTH 456 0
DWIDTH 6 0
BBX 6 9 0 -2
BITMAP
CC
CC
4C
68
38
30
30
60
C0
ENDCHAR

STARTCHAR z
ENCODING 122
SWIDTH 410 0
DWIDTH 4 0
BBX 5 7 0 0
BITMAP
F8
18
30
30
60
C0
F8
ENDCHAR

STARTCHAR braceleft
ENCODING 123
SWIDTH 319 0
DWIDTH 4 0
BBX 4 13 0 -4
BITMAP
30
60
60
60
60
60
C0
60
60
60
60
60
30
ENDCHAR

STARTCHAR bar
ENCODING 124
SWIDTH 230 0
DWIDTH 3 0
BBX 2 12 1 -3
BITMAP
C0
C0
C0
C0
C0
C0
C0
C0
C0
C0
C0
C0
ENDCHAR

STARTCHAR braceright
ENCODING 125
SWIDTH 319 0
DWIDTH 4 0
BBX 4 13 0 -4
BITMAP
C0
60
60
60
60
60
30
60
60
60
60
60
C0
ENDCHAR

STARTCHAR asciitilde
ENCODING 126
SWIDTH 479 0
DWIDTH 6 0
BBX 6 3 0 3
BITMAP
64
FC
98
ENDCHAR

STARTCHAR space
ENCODING 160
SWIDTH 228 0
DWIDTH 4 0
BBX 0 0 0 0
BITMAP
ENDCHAR

STARTCHAR Aogonek
ENCODING 161
SWIDTH 592 0
DWIDTH 8 0
BBX 8 12 1 -3
BITMAP
10
38
28
6C
6C
7C
C6
C6
C6
06
06
03
ENDCHAR

STARTCHAR afii240
ENCODING 162
SWIDTH 556 0
DWIDTH 7 0
BBX 6 7 1 0
BITMAP
CC
D8
F0
F0
D8
CC
CC
ENDCHAR

STARTCHAR Rcommaaccent
ENCODING 163
SWIDTH 592 0
DWIDTH 8 0
BBX 7 13 1 -4
BITMAP
FC
C6
C6
C6
FC
D8
CC
CC
C6
00
18
18
30
ENDCHAR

STARTCHAR currency
ENCODING 164
SWIDTH 456 0
DWIDTH 6 0
BBX 6 6 0 2
BITMAP
48
FC
68
58
FC
48
ENDCHAR

STARTCHAR Itilde
ENCODING 165
SWIDTH 228 0
DWIDTH 3 0
BBX 4 12 0 0
BITMAP
D0
B0
00
60
60
60
60
60
60
60
60
60
ENDCHAR

STARTCHAR Lcommaaccent
ENCODING 166
SWIDTH 501 0
DWIDTH 7 0
BBX 6 13 1 -4
BITMAP
C0
C0
C0
C0
C0
C0
C0
C0
FC
00
30
30
60
ENDCHAR

STARTCHAR section
ENCODING 167
SWIDTH 456 0
DWIDTH 6 0
BBX 5 12 1 -3
BITMAP
70
D8
C8
70
78
D8
D8
70
38
98
D8
70
ENDCHAR

STARTCHAR hungarumlaut
ENCODING 168
SWIDTH 273 0
DWIDTH 4 0
BBX 6 2 0 8
BITMAP
6C
D8
ENDCHAR

STARTCHAR Scaron
ENCODING 169
SWIDTH 547 0
DWIDTH 7 0
BBX 6 12 1 0
BITMAP
68
30
00
78
CC
CC
E0
78
1C
CC
CC
78
ENDCHAR

STARTCHAR Emacron
ENCODING 170
SWIDTH 547 0
DWIDTH 6 0
BBX 5 11 1 0
BITMAP
F8
00
F8
C0
C0
C0
F8
C0
C0
C0
F8
ENDCHAR

STARTCHAR Gcommaaccent
ENCODING 171
SWIDTH 638 0
DWIDTH 8 0
BBX 7 13 1 -4
BITMAP
3C
66
C6
C0
C0
CE
C6
66
3C
00
18
18
30
ENDCHAR

STARTCHAR afii237
ENCODING 172
SWIDTH 611 0
DWIDTH 7 0
BBX 6 9 1 0
BITMAP
FC
30
30
30
FC
30
30
30
30
ENDCHAR

STARTCHAR hyphen
ENCODING 173
SWIDTH 273 0
DWIDTH 4 0
BBX 3 2 1 7
BITMAP
E0
E0
ENDCHAR

STARTCHAR Zcaron
ENCODING 174
SWIDTH 501 0
DWIDTH 7 0
BBX 6 12 1 0
BITMAP
68
30
00
FC
0C
0C
18
30
30
60
C0
FC
ENDCHAR

STARTCHAR macron
ENCODING 175
SWIDTH 273 0
DWIDTH 4 0
BBX 3 2 1 7
BITMAP
E0
E0
ENDCHAR

STARTCHAR degree
ENCODING 176
SWIDTH 328 0
DWIDTH 4 0
BBX 5 4 0 5
BITMAP
70
D8
D8
70
ENDCHAR

STARTCHAR aogonek
ENCODING 177
SWIDTH 456 0
DWIDTH 5 0
BBX 6 10 0 -3
BITMAP
70
18
18
78
D8
D8
68
18
18
0C
ENDCHAR

STARTCHAR ogonek
ENCODING 178
SWIDTH 273 0
DWIDTH 4 0
BBX 3 3 1 -3
BITMAP
C0
C0
60
ENDCHAR

STARTCHAR rcommaaccent
ENCODING 179
SWIDTH 319 0
DWIDTH 4 0
BBX 5 11 0 -4
BITMAP
68
78
70
60
60
60
60
00
60
60
C0
ENDCHAR

STARTCHAR acute
ENCODING 180
SWIDTH 273 0
DWIDTH 4 0
BBX 3 2 1 7
BITMAP
60
C0
ENDCHAR

STARTCHAR itilde
ENCODING 181
SWIDTH 228 0
DWIDTH 3 0
BBX 4 10 0 0
BITMAP
D0
B0
00
60
60
60
60
60
60
60
ENDCHAR

STARTCHAR lcommaaccent
ENCODING 182
SWIDTH 228 0
DWIDTH 3 0
BBX 3 13 0 -4
BITMAP
60
60
60
60
60
60
60
60
60
00
60
60
C0
ENDCHAR

STARTCHAR caron
ENCODING 183
SWIDTH 273 0
DWIDTH 4 0
BBX 4 1 0 8
BITMAP
F0
ENDCHAR

STARTCHAR commaaccent
ENCODING 184
SWIDTH 333 0
DWIDTH 4 0
BBX 3 3 0 -4
BITMAP
60
60
C0
ENDCHAR

STARTCHAR scaron
ENCODING 185
SWIDTH 456 0
DWIDTH 6 0
BBX 5 10 1 0
BITMAP
D0
60
00
70
D8
E0
70
38
D8
70
ENDCHAR

STARTCHAR emacron
ENCODING 186
SWIDTH 456 0
DWIDTH 6 0
BBX 5 9 1 0
BITMAP
F8
00
70
D8
D8
F8
C0
D8
70
ENDCHAR

STARTCHAR gcommaaccent
ENCODING 187
SWIDTH 501 0
DWIDTH 7 0
BBX 6 13 1 -2
BITMAP
18
30
30
00
6C
DC
CC
CC
CC
DC
6C
8C
78
ENDCHAR

STARTCHAR afii253
ENCODING 188
SWIDTH 333 0
DWIDTH 3 0
BBX 4 9 0 0
BITMAP
60
60
F0
60
F0
60
60
60
30
ENDCHAR

STARTCHAR afii238
ENCODING 189
SWIDTH 723 0
DWIDTH 8 0
BBX 7 9 1 0
BITMAP
DC
E6
C6
C6
C6
C6
C6
C6
DC
ENDCHAR

STARTCHAR zcaron
ENCODING 190
SWIDTH 410 0
DWIDTH 4 0
BBX 5 10 0 0
BITMAP
68
30
00
F8
18
30
30
60
C0
F8
ENDCHAR

STARTCHAR afii254
ENCODING 191
SWIDTH 611 0
DWIDTH 8 0
BBX 6 10 1 -3
BITMAP
D8
EC
CC
CC
CC
CC
CC
0C
0C
18
ENDCHAR

STARTCHAR Amacron
ENCODING 192
SWIDTH 592 0
DWIDTH 8 0
BBX 7 11 1 0
BITMAP
7C
00
10
38
28
6C
6C
7C
C6
C6
C6
ENDCHAR

STARTCHAR Aacute
ENCODING 193
SWIDTH 592 0
DWIDTH 8 0
BBX 7 12 1 0
BITMAP
18
30
00
10
38
28
6C
6C
7C
C6
C6
C6
ENDCHAR

STARTCHAR Acircumflex
ENCODING 194
SWIDTH 592 0
DWIDTH 8 0
BBX 7 12 1 0
BITMAP
30
68
00
10
38
28
6C
6C
7C
C6
C6
C6
ENDCHAR

STARTCHAR Atilde
ENCODING 195
SWIDTH 592 0
DWIDTH 8 0
BBX 7 12 1 0
BITMAP
34
58
00
10
38
28
6C
6C
7C
C6
C6
C6
ENDCHAR

STARTCHAR Adieresis
ENCODING 196
SWIDTH 592 0
DWIDTH 8 0
BBX 7 12 1 0
BITMAP
6C
6C
00
10
38
28
6C
6C
7C
C6
C6
C6
ENDCHAR

STARTCHAR Aring
ENCODING 197
SWIDTH 592 0
DWIDTH 8 0
BBX 7 12 1 0
BITMAP
38
44
38
10
38
28
6C
6C
7C
C6
C6
C6
ENDCHAR

STARTCHAR AE
ENCODING 198
SWIDTH 820 0
DWIDTH 11 0
BBX 10 9 1 0
BITMAP
0FC0
1E00
1600
3600
27C0
7E00
7E00
4600
C7C0
ENDCHAR

STARTCHAR Iogonek
ENCODING 199
SWIDTH 228 0
DWIDTH 3 0
BBX 3 13 0 -4
BITMAP
60
60
60
60
60
60
60
60
60
00
60
60
C0
ENDCHAR

STARTCHAR Ccaron
ENCODING 200
SWIDTH 592 0
DWIDTH 8 0
BBX 7 12 1 0
BITMAP
34
18
00
3C
66
C6
C0
C0
C0
C6
66
3C
ENDCHAR

STARTCHAR Eacute
ENCODING 201
SWIDTH 547 0
DWIDTH 6 0
BBX 5 12 1 0
BITMAP
30
60
00
F8
C0
C0
C0
F8
C0
C0
C0
F8
ENDCHAR

STARTCHAR Eogonek
ENCODING 202
SWIDTH 547 0
DWIDTH 6 0
BBX 5 12 1 -3
BITMAP
F8
C0
C0
C0
F8
C0
C0
C0
F8
30
30
18
ENDCHAR

STARTCHAR Edieresis
ENCODING 203
SWIDTH 547 0
DWIDTH 6 0
BBX 6 12 1 0
BITMAP
CC
CC
00
F8
C0
C0
C0
F8
C0
C0
C0
F8
ENDCHAR

STARTCHAR Edotaccent
ENCODING 204
SWIDTH 547 0
DWIDTH 6 0
BBX 5 12 1 0
BITMAP
30
30
00
F8
C0
C0
C0
F8
C0
C0
C0
F8
ENDCHAR

STARTCHAR Iacute
ENCODING 205
SWIDTH 228 0
DWIDTH 3 0
BBX 3 12 1 0
BITMAP
60
C0
00
C0
C0
C0
C0
C0
C0
C0
C0
C0
ENDCHAR

STARTCHAR Icircumflex
ENCODING 206
SWIDTH 228 0
DWIDTH 3 0
BBX 4 12 0 0
BITMAP
60
B0
00
60
60
60
60
60
60
60
60
60
ENDCHAR

STARTCHAR Imacron
ENCODING 207
SWIDTH 228 0
DWIDTH 3 0
BBX 4 11 0 0
BITMAP
F0
00
60
60
60
60
60
60
60
60
60
ENDCHAR

STARTCHAR Eth
ENCODING 208
SWIDTH 592 0
DWIDTH 8 0
BBX 8 9 0 0
BITMAP
7C
66
63
63
FB
63
63
66
7C
ENDCHAR

STARTCHAR Ncommaaccent
ENCODING 209
SWIDTH 592 0
DWIDTH 8 0
BBX 7 13 1 -4
BITMAP
C6
C6
E6
E6
F6
D6
DE
CE
C6
00
18
18
30
ENDCHAR

STARTCHAR Omacron
ENCODING 210
SWIDTH 638 0
DWIDTH 8 0
BBX 7 11 1 0
BITMAP
7C
00
38
6C
C6
C6
C6
C6
C6
6C
38
ENDCHAR

STARTCHAR Kcommaaccent
ENCODING 211
SWIDTH 592 0
DWIDTH 8 0
BBX 7 13 1 -4
BITMAP
C6
CC
D8
F0
F8
D8
CC
C6
C6
00
30
30
60
ENDCHAR

STARTCHAR Ocircumflex
ENCODING 212
SWIDTH 638 0
DWIDTH 8 0
BBX 7 12 1 0
BITMAP
18
34
00
38
6C
C6
C6
C6
C6
C6
6C
38
ENDCHAR

STARTCHAR Otilde
ENCODING 213
SWIDTH 638 0
DWIDTH 8 0
BBX 7 12 1 0
BITMAP
34
58
00
38
6C
C6
C6
C6
C6
C6
6C
38
ENDCHAR

STARTCHAR Odieresis
ENCODING 214
SWIDTH 638 0
DWIDTH 8 0
BBX 7 12 1 0
BITMAP
6C
6C
00
38
6C
C6
C6
C6
C6
C6
6C
38
ENDCHAR

STARTCHAR multiply
ENCODING 215
SWIDTH 479 0
DWIDTH 6 0
BBX 5 6 1 2
BITMAP
D8
D8
70
70
F8
D8
ENDCHAR

STARTCHAR Oslash
ENCODING 216
SWIDTH 638 0
DWIDTH 8 0
BBX 7 9 1 0
BITMAP
3A
6C
D6
D6
D6
E6
E6
6C
B8
ENDCHAR

STARTCHAR Uogonek
ENCODING 217
SWIDTH 592 0
DWIDTH 8 0
BBX 7 12 1 -3
BITMAP
C6
C6
C6
C6
C6
C6
C6
6C
38
18
18
0C
ENDCHAR

STARTCHAR Uacute
ENCODING 218
SWIDTH 592 0
DWIDTH 8 0
BBX 7 12 1 0
BITMAP
18
30
00
C6
C6
C6
C6
C6
C6
C6
6C
38
ENDCHAR

STARTCHAR Ucircumflex
ENCODING 219
SWIDTH 592 0
DWIDTH 8 0
BBX 7 12 1 0
BITMAP
30
68
00
C6
C6
C6
C6
C6
C6
C6
6C
38
ENDCHAR

STARTCHAR Udieresis
ENCODING 220
SWIDTH 592 0
DWIDTH 8 0
BBX 7 12 1 0
BITMAP
6C
6C
00
C6
C6
C6
C6
C6
C6
C6
6C
38
ENDCHAR

STARTCHAR Utilde
ENCODING 221
SWIDTH 592 0
DWIDTH 8 0
BBX 7 12 1 0
BITMAP
34
58
00
C6
C6
C6
C6
C6
C6
C6
6C
38
ENDCHAR

STARTCHAR Umacron
ENCODING 222
SWIDTH 592 0
DWIDTH 8 0
BBX 7 11 1 0
BITMAP
7C
00
C6
C6
C6
C6
C6
C6
C6
6C
38
ENDCHAR

STARTCHAR germandbls
ENCODING 223
SWIDTH 501 0
DWIDTH 7 0
BBX 6 9 1 0
BITMAP
70
D8
D8
D8
D8
CC
CC
DC
D8
ENDCHAR

STARTCHAR amacron
ENCODING 224
SWIDTH 456 0
DWIDTH 5 0
BBX 5 9 0 0
BITMAP
78
00
70
18
18
78
D8
D8
68
ENDCHAR

STARTCHAR aacute
ENCODING 225
SWIDTH 456 0
DWIDTH 5 0
BBX 5 10 0 0
BITMAP
30
60
00
70
18
18
78
D8
D8
68
ENDCHAR

STARTCHAR acircumflex
ENCODING 226
SWIDTH 456 0
DWIDTH 5 0
BBX 5 10 0 0
BITMAP
30
68
00
70
18
18
78
D8
D8
68
ENDCHAR

STARTCHAR atilde
ENCODING 227
SWIDTH 456 0
DWIDTH 5 0
BBX 5 10 0 0
BITMAP
68
B0
00
70
18
18
78
D8
D8
68
ENDCHAR

STARTCHAR adieresis
ENCODING 228
SWIDTH 456 0
DWIDTH 5 0
BBX 5 10 0 0
BITMAP
D8
D8
00
70
18
18
78
D8
D8
68
ENDCHAR

STARTCHAR aring
ENCODING 229
SWIDTH 456 0
DWIDTH 5 0
BBX 5 10 0 0
BITMAP
30
48
30
70
18
18
78
D8
D8
68
ENDCHAR

STARTCHAR ae
ENCODING 230
SWIDTH 729 0
DWIDTH 9 0
BBX 8 7 1 0
BITMAP
76
1B
1B
7F
D8
DB
6E
ENDCHAR

STARTCHAR iogonek
ENCODING 231
SWIDTH 228 0
DWIDTH 3 0
BBX 3 10 1 -3
BITMAP
C0
C0
C0
C0
C0
C0
C0
C0
C0
60
ENDCHAR

STARTCHAR ccaron
ENCODING 232
SWIDTH 456 0
DWIDTH 6 0
BBX 5 10 1 0
BITMAP
68
30
00
70
D8
C0
C0
C0
D8
70
ENDCHAR

STARTCHAR eacute
ENCODING 233
SWIDTH 456 0
DWIDTH 6 0
BBX 5 10 1 0
BITMAP
18
30
00
70
D8
D8
F8
C0
D8
70
ENDCHAR

STARTCHAR eogonek
ENCODING 234
SWIDTH 456 0
DWIDTH 6 0
BBX 5 10 1 -3
BITMAP
70
D8
D8
F8
C0
D8
70
30
30
18
ENDCHAR

STARTCHAR edieresis
ENCODING 235
SWIDTH 456 0
DWIDTH 6 0
BBX 5 10 1 0
BITMAP
D8
D8
00
70
D8
D8
F8
C0
D8
70
ENDCHAR

STARTCHAR edotaccent
ENCODING 236
SWIDTH 456 0
DWIDTH 6 0
BBX 5 10 1 0
BITMAP
30
30
00
70
D8
D8
F8
C0
D8
70
ENDCHAR

STARTCHAR iacute
ENCODING 237
SWIDTH 228 0
DWIDTH 3 0
BBX 3 10 1 0
BITMAP
60
C0
00
C0
C0
C0
C0
C0
C0
C0
ENDCHAR

STARTCHAR icircumflex
ENCODING 238
SWIDTH 228 0
DWIDTH 3 0
BBX 4 10 0 0
BITMAP
60
D0
00
60
60
60
60
60
60
60
ENDCHAR

STARTCHAR imacron
ENCODING 239
SWIDTH 228 0
DWIDTH 3 0
BBX 4 9 0 0
BITMAP
F0
00
60
60
60
60
60
60
60
ENDCHAR

STARTCHAR dcroat
ENCODING 240
SWIDTH 501 0
DWIDTH 7 0
BBX 7 10 1 0
BITMAP
0C
1E
0C
6C
DC
CC
CC
CC
DC
6C
ENDCHAR

STARTCHAR ncommaaccent
ENCODING 241
SWIDTH 501 0
DWIDTH 7 0
BBX 6 10 1 -3
BITMAP
D8
EC
CC
CC
CC
CC
CC
00
10
20
ENDCHAR

STARTCHAR omacron
ENCODING 242
SWIDTH 501 0
DWIDTH 7 0
BBX 6 9 1 0
BITMAP
78
00
78
CC
CC
CC
CC
CC
78
ENDCHAR

STARTCHAR kcommaaccent
ENCODING 243
SWIDTH 456 0
DWIDTH 6 0
BBX 5 13 1 -4
BITMAP
C0
C0
D8
D8
F0
E0
F0
D8
D8
00
60
60
C0
ENDCHAR

STARTCHAR ocircumflex
ENCODING 244
SWIDTH 501 0
DWIDTH 7 0
BBX 6 10 1 0
BITMAP
18
30
00
78
CC
CC
CC
CC
CC
78
ENDCHAR

STARTCHAR otilde
ENCODING 245
SWIDTH 501 0
DWIDTH 7 0
BBX 6 10 1 0
BITMAP
34
58
00
78
CC
CC
CC
CC
CC
78
ENDCHAR

STARTCHAR odieresis
ENCODING 246
SWIDTH 501 0
DWIDTH 7 0
BBX 6 10 1 0
BITMAP
CC
CC
00
78
CC
CC
CC
CC
CC
78
ENDCHAR

STARTCHAR divide
ENCODING 247
SWIDTH 479 0
DWIDTH 6 0
BBX 5 8 1 1
BITMAP
20
20
00
F8
F8
00
20
20
ENDCHAR

STARTCHAR oslash
ENCODING 248
SWIDTH 501 0
DWIDTH 7 0
BBX 6 7 1 0
BITMAP
7C
CC
DC
EC
CC
CC
F8
ENDCHAR

STARTCHAR uogonek
ENCODING 249
SWIDTH 501 0
DWIDTH 7 0
BBX 7 10 1 -3
BITMAP
CC
CC
CC
CC
CC
DC
6C
0C
0C
06
ENDCHAR

STARTCHAR uacute
ENCODING 250
SWIDTH 501 0
DWIDTH 7 0
BBX 6 10 1 0
BITMAP
18
30
00
CC
CC
CC
CC
CC
DC
6C
ENDCHAR

STARTCHAR ucircumflex
ENCODING 251
SWIDTH 501 0
DWIDTH 7 0
BBX 6 10 1 0
BITMAP
30
68
00
CC
CC
CC
CC
CC
DC
6C
ENDCHAR

STARTCHAR udieresis
ENCODING 252
SWIDTH 501 0
DWIDTH 7 0
BBX 6 10 1 0
BITMAP
6C
6C
00
CC
CC
CC
CC
CC
DC
6C
ENDCHAR

STARTCHAR utilde
ENCODING 253
SWIDTH 501 0
DWIDTH 7 0
BBX 6 10 1 0
BITMAP
68
B0
00
CC
CC
CC
CC
CC
DC
6C
ENDCHAR

STARTCHAR umacron
ENCODING 254
SWIDTH 501 0
DWIDTH 7 0
BBX 6 9 1 0
BITMAP
78
00
CC
CC
CC
CC
CC
DC
6C
ENDCHAR

STARTCHAR dotaccent
ENCODING 255
SWIDTH 273 0
DWIDTH 4 0
BBX 2 2 1 7
BITMAP
C0
C0
ENDCHAR
ENDFONT
